<svg width="94" height="20" viewBox="0 0 94 20" fill="none" xmlns="http://www.w3.org/2000/svg">
<g clip-path="url(#clip0_184_347)">
<mask id="mask0_184_347" style="mask-type:luminance" maskUnits="userSpaceOnUse" x="0" y="0" width="94" height="20">
<path d="M91.2701 0H2.72991C1.22222 0 0 1.34315 0 3V17C0 18.6569 1.22222 20 2.72991 20H91.2701C92.7778 20 94 18.6569 94 17V3C94 1.34315 92.7778 0 91.2701 0Z" fill="white"/>
</mask>
<g mask="url(#mask0_184_347)">
<path d="M60.3 0H0V20H60.3V0Z" fill="#555555"/>
<path d="M103.3 0H60.2998V20H103.3V0Z" fill="#33CC11"/>
<path d="M103.3 0H0V20H103.3V0Z" fill="url(#paint0_linear_184_347)"/>
</g>
<path d="M11.4302 14.4248C11.0936 14.5859 10.7731 14.7113 10.4688 14.8008C10.168 14.8903 9.84749 14.9351 9.50732 14.9351C9.07406 14.9351 8.6766 14.8724 8.31494 14.7471C7.95329 14.6182 7.64355 14.4248 7.38574 14.167C7.12435 13.9092 6.92204 13.5833 6.77881 13.1895C6.63558 12.7956 6.56396 12.3354 6.56396 11.8091C6.56396 10.828 6.83252 10.0581 7.36963 9.49951C7.91032 8.94092 8.62288 8.66162 9.50732 8.66162C9.85107 8.66162 10.1877 8.70996 10.5171 8.80664C10.8501 8.90332 11.1545 9.02148 11.4302 9.16113V10.2837H11.3765C11.0685 10.0438 10.7498 9.85938 10.4204 9.73047C10.0946 9.60156 9.77588 9.53711 9.46436 9.53711C8.89144 9.53711 8.43848 9.73047 8.10547 10.1172C7.77604 10.5003 7.61133 11.0643 7.61133 11.8091C7.61133 12.5324 7.77246 13.0892 8.09473 13.4795C8.42057 13.8662 8.87712 14.0596 9.46436 14.0596C9.66846 14.0596 9.87614 14.0327 10.0874 13.979C10.2987 13.9253 10.4884 13.8555 10.6567 13.7695C10.8035 13.6943 10.9414 13.6156 11.0703 13.5332C11.1992 13.4473 11.3013 13.3739 11.3765 13.313H11.4302V14.4248ZM17.8433 11.8037C17.8433 12.7812 17.5926 13.5529 17.0913 14.1187C16.59 14.6844 15.9186 14.9673 15.0771 14.9673C14.2285 14.9673 13.5535 14.6844 13.0522 14.1187C12.5545 13.5529 12.3057 12.7812 12.3057 11.8037C12.3057 10.8262 12.5545 10.0545 13.0522 9.48877C13.5535 8.91943 14.2285 8.63477 15.0771 8.63477C15.9186 8.63477 16.59 8.91943 17.0913 9.48877C17.5926 10.0545 17.8433 10.8262 17.8433 11.8037ZM16.8013 11.8037C16.8013 11.0267 16.6491 10.4502 16.3447 10.0742C16.0404 9.69466 15.6178 9.50488 15.0771 9.50488C14.5293 9.50488 14.1032 9.69466 13.7988 10.0742C13.498 10.4502 13.3477 11.0267 13.3477 11.8037C13.3477 12.5557 13.4998 13.1268 13.8042 13.5171C14.1086 13.9038 14.5329 14.0972 15.0771 14.0972C15.6143 14.0972 16.035 13.9056 16.3394 13.5225C16.6473 13.1357 16.8013 12.5628 16.8013 11.8037ZM24.6001 8.80127L22.1724 14.8008H21.1572L18.7456 8.80127H19.8413L21.6997 13.5762L23.542 8.80127H24.6001ZM30.9434 11.9058H26.5229C26.5229 12.2746 26.5785 12.5968 26.6895 12.8726C26.8005 13.1447 26.9526 13.3685 27.146 13.5439C27.3322 13.7158 27.5524 13.8447 27.8066 13.9307C28.0645 14.0166 28.3473 14.0596 28.6553 14.0596C29.0635 14.0596 29.4735 13.979 29.8853 13.8179C30.3006 13.6532 30.596 13.492 30.7715 13.3345H30.8252V14.4355C30.485 14.5788 30.1377 14.6987 29.7832 14.7954C29.4287 14.8921 29.0563 14.9404 28.666 14.9404C27.6706 14.9404 26.8936 14.6719 26.335 14.1348C25.7764 13.5941 25.4971 12.8278 25.4971 11.8359C25.4971 10.8548 25.7638 10.076 26.2974 9.49951C26.8345 8.92301 27.5399 8.63477 28.4136 8.63477C29.2228 8.63477 29.8459 8.87109 30.2827 9.34375C30.7231 9.81641 30.9434 10.4878 30.9434 11.3579V11.9058ZM29.9604 11.1323C29.9569 10.6024 29.8226 10.1924 29.5576 9.90234C29.2962 9.6123 28.897 9.46729 28.3599 9.46729C27.8192 9.46729 27.3877 9.62663 27.0654 9.94531C26.7467 10.264 26.5659 10.6597 26.5229 11.1323H29.9604ZM36.2178 9.90234H36.1641C36.0137 9.86654 35.8669 9.84147 35.7236 9.82715C35.584 9.80924 35.4175 9.80029 35.2241 9.80029C34.9126 9.80029 34.6118 9.87012 34.3218 10.0098C34.0317 10.1458 33.7524 10.3231 33.4839 10.5415V14.8008H32.4741V8.80127H33.4839V9.6875C33.8849 9.36523 34.2376 9.13786 34.542 9.00537C34.8499 8.8693 35.1632 8.80127 35.4819 8.80127C35.6574 8.80127 35.7845 8.80664 35.8633 8.81738C35.9421 8.82454 36.0602 8.84066 36.2178 8.86572V9.90234ZM41.8306 14.8008H40.8262V14.1616C40.7367 14.2225 40.6149 14.3084 40.4609 14.4194C40.3105 14.5269 40.1637 14.6128 40.0205 14.6772C39.8522 14.7596 39.6589 14.8276 39.4404 14.8813C39.222 14.9386 38.966 14.9673 38.6724 14.9673C38.1317 14.9673 37.6733 14.7882 37.2974 14.4302C36.9214 14.0721 36.7334 13.6156 36.7334 13.0605C36.7334 12.6058 36.8301 12.2388 37.0234 11.9595C37.2204 11.6766 37.4997 11.4546 37.8613 11.2935C38.2266 11.1323 38.6652 11.0231 39.1772 10.9658C39.6893 10.9085 40.2389 10.8656 40.8262 10.8369V10.6812C40.8262 10.452 40.785 10.2622 40.7026 10.1118C40.6239 9.96143 40.5093 9.84326 40.3589 9.75732C40.2157 9.67497 40.0438 9.61947 39.8433 9.59082C39.6427 9.56217 39.4333 9.54785 39.2148 9.54785C38.9499 9.54785 38.6545 9.58366 38.3286 9.65527C38.0028 9.72331 37.6662 9.82357 37.3188 9.95605H37.2651V8.93018C37.4621 8.87646 37.7467 8.81738 38.1191 8.75293C38.4915 8.68848 38.8586 8.65625 39.2202 8.65625C39.6427 8.65625 40.0098 8.69206 40.3213 8.76367C40.6364 8.83171 40.9085 8.94987 41.1377 9.11816C41.3633 9.28288 41.5352 9.49593 41.6533 9.75732C41.7715 10.0187 41.8306 10.3428 41.8306 10.7295V14.8008ZM40.8262 13.3237V11.6533C40.5182 11.6712 40.1548 11.6981 39.7358 11.7339C39.3205 11.7697 38.991 11.8216 38.7476 11.8896C38.4575 11.972 38.223 12.1009 38.0439 12.2764C37.8649 12.4482 37.7754 12.6864 37.7754 12.9907C37.7754 13.3345 37.8792 13.5941 38.0869 13.7695C38.2946 13.9414 38.6115 14.0273 39.0376 14.0273C39.3921 14.0273 39.7161 13.9593 40.0098 13.8232C40.3034 13.6836 40.5755 13.5171 40.8262 13.3237ZM48.6411 14.1187C48.6411 15.1356 48.4102 15.8822 47.9482 16.3584C47.4863 16.8346 46.7756 17.0728 45.8159 17.0728C45.4972 17.0728 45.1857 17.0495 44.8813 17.0029C44.5806 16.96 44.2834 16.8973 43.9897 16.8149V15.7837H44.0435C44.2082 15.8481 44.4696 15.9269 44.8276 16.02C45.1857 16.1167 45.5438 16.165 45.9019 16.165C46.2456 16.165 46.5303 16.1239 46.7559 16.0415C46.9814 15.9591 47.1569 15.8446 47.2822 15.6978C47.4076 15.5581 47.4971 15.3898 47.5508 15.1929C47.6045 14.9959 47.6313 14.7757 47.6313 14.5322V13.9844C47.327 14.2279 47.0352 14.4105 46.7559 14.5322C46.4801 14.6504 46.1274 14.7095 45.6978 14.7095C44.9816 14.7095 44.4123 14.4517 43.9897 13.936C43.5708 13.4168 43.3613 12.6864 43.3613 11.7446C43.3613 11.229 43.4329 10.785 43.5762 10.4126C43.723 10.0366 43.9217 9.71257 44.1724 9.44043C44.4051 9.1862 44.688 8.98926 45.021 8.84961C45.354 8.70638 45.6852 8.63477 46.0146 8.63477C46.362 8.63477 46.652 8.67057 46.8848 8.74219C47.1211 8.81022 47.37 8.91585 47.6313 9.05908L47.6958 8.80127H48.6411V14.1187ZM47.6313 13.1519V9.88086C47.3628 9.75911 47.1121 9.67318 46.8794 9.62305C46.6502 9.56934 46.4211 9.54248 46.1919 9.54248C45.6369 9.54248 45.2 9.72868 44.8813 10.1011C44.5627 10.4735 44.4033 11.0142 44.4033 11.7231C44.4033 12.3963 44.5215 12.9066 44.7578 13.2539C44.9941 13.6012 45.3862 13.7749 45.9341 13.7749C46.2277 13.7749 46.5213 13.7194 46.8149 13.6084C47.1121 13.4938 47.3843 13.3416 47.6313 13.1519ZM55.6504 11.9058H51.23C51.23 12.2746 51.2855 12.5968 51.3965 12.8726C51.5075 13.1447 51.6597 13.3685 51.853 13.5439C52.0392 13.7158 52.2594 13.8447 52.5137 13.9307C52.7715 14.0166 53.0544 14.0596 53.3623 14.0596C53.7705 14.0596 54.1805 13.979 54.5923 13.8179C55.0076 13.6532 55.3031 13.492 55.4785 13.3345H55.5322V14.4355C55.1921 14.5788 54.8447 14.6987 54.4902 14.7954C54.1357 14.8921 53.7633 14.9404 53.373 14.9404C52.3776 14.9404 51.6006 14.6719 51.042 14.1348C50.4834 13.5941 50.2041 12.8278 50.2041 11.8359C50.2041 10.8548 50.4709 10.076 51.0044 9.49951C51.5415 8.92301 52.2469 8.63477 53.1206 8.63477C53.9299 8.63477 54.5529 8.87109 54.9897 9.34375C55.4302 9.81641 55.6504 10.4878 55.6504 11.3579V11.9058ZM54.6675 11.1323C54.6639 10.6024 54.5296 10.1924 54.2646 9.90234C54.0033 9.6123 53.604 9.46729 53.0669 9.46729C52.5262 9.46729 52.0947 9.62663 51.7725 9.94531C51.4538 10.264 51.2729 10.6597 51.23 11.1323H54.6675Z" fill="black" fill-opacity="0.2"/>
<path d="M10.4302 13.4248C10.0936 13.5859 9.77311 13.7113 9.46875 13.8008C9.16797 13.8903 8.84749 13.9351 8.50732 13.9351C8.07406 13.9351 7.6766 13.8724 7.31494 13.7471C6.95329 13.6182 6.64355 13.4248 6.38574 13.167C6.12435 12.9092 5.92204 12.5833 5.77881 12.1895C5.63558 11.7956 5.56396 11.3354 5.56396 10.8091C5.56396 9.82796 5.83252 9.05811 6.36963 8.49951C6.91032 7.94092 7.62288 7.66162 8.50732 7.66162C8.85107 7.66162 9.18766 7.70996 9.51709 7.80664C9.8501 7.90332 10.1545 8.02148 10.4302 8.16113V9.28369H10.3765C10.0685 9.04378 9.74984 8.85938 9.42041 8.73047C9.09456 8.60156 8.77588 8.53711 8.46436 8.53711C7.89144 8.53711 7.43848 8.73047 7.10547 9.11719C6.77604 9.50033 6.61133 10.0643 6.61133 10.8091C6.61133 11.5324 6.77246 12.0892 7.09473 12.4795C7.42057 12.8662 7.87712 13.0596 8.46436 13.0596C8.66846 13.0596 8.87614 13.0327 9.0874 12.979C9.29867 12.9253 9.48844 12.8555 9.65674 12.7695C9.80355 12.6943 9.94141 12.6156 10.0703 12.5332C10.1992 12.4473 10.3013 12.3739 10.3765 12.313H10.4302V13.4248ZM16.8433 10.8037C16.8433 11.7812 16.5926 12.5529 16.0913 13.1187C15.59 13.6844 14.9186 13.9673 14.0771 13.9673C13.2285 13.9673 12.5535 13.6844 12.0522 13.1187C11.5545 12.5529 11.3057 11.7812 11.3057 10.8037C11.3057 9.82617 11.5545 9.05452 12.0522 8.48877C12.5535 7.91943 13.2285 7.63477 14.0771 7.63477C14.9186 7.63477 15.59 7.91943 16.0913 8.48877C16.5926 9.05452 16.8433 9.82617 16.8433 10.8037ZM15.8013 10.8037C15.8013 10.0267 15.6491 9.4502 15.3447 9.07422C15.0404 8.69466 14.6178 8.50488 14.0771 8.50488C13.5293 8.50488 13.1032 8.69466 12.7988 9.07422C12.498 9.4502 12.3477 10.0267 12.3477 10.8037C12.3477 11.5557 12.4998 12.1268 12.8042 12.5171C13.1086 12.9038 13.5329 13.0972 14.0771 13.0972C14.6143 13.0972 15.035 12.9056 15.3394 12.5225C15.6473 12.1357 15.8013 11.5628 15.8013 10.8037ZM23.6001 7.80127L21.1724 13.8008H20.1572L17.7456 7.80127H18.8413L20.6997 12.5762L22.542 7.80127H23.6001ZM29.9434 10.9058H25.5229C25.5229 11.2746 25.5785 11.5968 25.6895 11.8726C25.8005 12.1447 25.9526 12.3685 26.146 12.5439C26.3322 12.7158 26.5524 12.8447 26.8066 12.9307C27.0645 13.0166 27.3473 13.0596 27.6553 13.0596C28.0635 13.0596 28.4735 12.979 28.8853 12.8179C29.3006 12.6532 29.596 12.492 29.7715 12.3345H29.8252V13.4355C29.485 13.5788 29.1377 13.6987 28.7832 13.7954C28.4287 13.8921 28.0563 13.9404 27.666 13.9404C26.6706 13.9404 25.8936 13.6719 25.335 13.1348C24.7764 12.5941 24.4971 11.8278 24.4971 10.8359C24.4971 9.85482 24.7638 9.07601 25.2974 8.49951C25.8345 7.92301 26.5399 7.63477 27.4136 7.63477C28.2228 7.63477 28.8459 7.87109 29.2827 8.34375C29.7231 8.81641 29.9434 9.48779 29.9434 10.3579V10.9058ZM28.9604 10.1323C28.9569 9.60238 28.8226 9.19238 28.5576 8.90234C28.2962 8.6123 27.897 8.46729 27.3599 8.46729C26.8192 8.46729 26.3877 8.62663 26.0654 8.94531C25.7467 9.264 25.5659 9.65967 25.5229 10.1323H28.9604ZM35.2178 8.90234H35.1641C35.0137 8.86654 34.8669 8.84147 34.7236 8.82715C34.584 8.80924 34.4175 8.80029 34.2241 8.80029C33.9126 8.80029 33.6118 8.87012 33.3218 9.00977C33.0317 9.14583 32.7524 9.32308 32.4839 9.5415V13.8008H31.4741V7.80127H32.4839V8.6875C32.8849 8.36523 33.2376 8.13786 33.542 8.00537C33.8499 7.8693 34.1632 7.80127 34.4819 7.80127C34.6574 7.80127 34.7845 7.80664 34.8633 7.81738C34.9421 7.82454 35.0602 7.84066 35.2178 7.86572V8.90234ZM40.8306 13.8008H39.8262V13.1616C39.7367 13.2225 39.6149 13.3084 39.4609 13.4194C39.3105 13.5269 39.1637 13.6128 39.0205 13.6772C38.8522 13.7596 38.6589 13.8276 38.4404 13.8813C38.222 13.9386 37.966 13.9673 37.6724 13.9673C37.1317 13.9673 36.6733 13.7882 36.2974 13.4302C35.9214 13.0721 35.7334 12.6156 35.7334 12.0605C35.7334 11.6058 35.8301 11.2388 36.0234 10.9595C36.2204 10.6766 36.4997 10.4546 36.8613 10.2935C37.2266 10.1323 37.6652 10.0231 38.1772 9.96582C38.6893 9.90853 39.2389 9.86556 39.8262 9.83691V9.68115C39.8262 9.45199 39.785 9.26221 39.7026 9.11182C39.6239 8.96143 39.5093 8.84326 39.3589 8.75732C39.2157 8.67497 39.0438 8.61947 38.8433 8.59082C38.6427 8.56217 38.4333 8.54785 38.2148 8.54785C37.9499 8.54785 37.6545 8.58366 37.3286 8.65527C37.0028 8.72331 36.6662 8.82357 36.3188 8.95605H36.2651V7.93018C36.4621 7.87646 36.7467 7.81738 37.1191 7.75293C37.4915 7.68848 37.8586 7.65625 38.2202 7.65625C38.6427 7.65625 39.0098 7.69206 39.3213 7.76367C39.6364 7.83171 39.9085 7.94987 40.1377 8.11816C40.3633 8.28288 40.5352 8.49593 40.6533 8.75732C40.7715 9.01872 40.8306 9.34277 40.8306 9.72949V13.8008ZM39.8262 12.3237V10.6533C39.5182 10.6712 39.1548 10.6981 38.7358 10.7339C38.3205 10.7697 37.991 10.8216 37.7476 10.8896C37.4575 10.972 37.223 11.1009 37.0439 11.2764C36.8649 11.4482 36.7754 11.6864 36.7754 11.9907C36.7754 12.3345 36.8792 12.5941 37.0869 12.7695C37.2946 12.9414 37.6115 13.0273 38.0376 13.0273C38.3921 13.0273 38.7161 12.9593 39.0098 12.8232C39.3034 12.6836 39.5755 12.5171 39.8262 12.3237ZM47.6411 13.1187C47.6411 14.1356 47.4102 14.8822 46.9482 15.3584C46.4863 15.8346 45.7756 16.0728 44.8159 16.0728C44.4972 16.0728 44.1857 16.0495 43.8813 16.0029C43.5806 15.96 43.2834 15.8973 42.9897 15.8149V14.7837H43.0435C43.2082 14.8481 43.4696 14.9269 43.8276 15.02C44.1857 15.1167 44.5438 15.165 44.9019 15.165C45.2456 15.165 45.5303 15.1239 45.7559 15.0415C45.9814 14.9591 46.1569 14.8446 46.2822 14.6978C46.4076 14.5581 46.4971 14.3898 46.5508 14.1929C46.6045 13.9959 46.6313 13.7757 46.6313 13.5322V12.9844C46.327 13.2279 46.0352 13.4105 45.7559 13.5322C45.4801 13.6504 45.1274 13.7095 44.6978 13.7095C43.9816 13.7095 43.4123 13.4517 42.9897 12.936C42.5708 12.4168 42.3613 11.6864 42.3613 10.7446C42.3613 10.229 42.4329 9.78499 42.5762 9.4126C42.723 9.03662 42.9217 8.71257 43.1724 8.44043C43.4051 8.1862 43.688 7.98926 44.021 7.84961C44.354 7.70638 44.6852 7.63477 45.0146 7.63477C45.362 7.63477 45.652 7.67057 45.8848 7.74219C46.1211 7.81022 46.37 7.91585 46.6313 8.05908L46.6958 7.80127H47.6411V13.1187ZM46.6313 12.1519V8.88086C46.3628 8.75911 46.1121 8.67318 45.8794 8.62305C45.6502 8.56934 45.4211 8.54248 45.1919 8.54248C44.6369 8.54248 44.2 8.72868 43.8813 9.10107C43.5627 9.47347 43.4033 10.0142 43.4033 10.7231C43.4033 11.3963 43.5215 11.9066 43.7578 12.2539C43.9941 12.6012 44.3862 12.7749 44.9341 12.7749C45.2277 12.7749 45.5213 12.7194 45.8149 12.6084C46.1121 12.4938 46.3843 12.3416 46.6313 12.1519ZM54.6504 10.9058H50.23C50.23 11.2746 50.2855 11.5968 50.3965 11.8726C50.5075 12.1447 50.6597 12.3685 50.853 12.5439C51.0392 12.7158 51.2594 12.8447 51.5137 12.9307C51.7715 13.0166 52.0544 13.0596 52.3623 13.0596C52.7705 13.0596 53.1805 12.979 53.5923 12.8179C54.0076 12.6532 54.3031 12.492 54.4785 12.3345H54.5322V13.4355C54.1921 13.5788 53.8447 13.6987 53.4902 13.7954C53.1357 13.8921 52.7633 13.9404 52.373 13.9404C51.3776 13.9404 50.6006 13.6719 50.042 13.1348C49.4834 12.5941 49.2041 11.8278 49.2041 10.8359C49.2041 9.85482 49.4709 9.07601 50.0044 8.49951C50.5415 7.92301 51.2469 7.63477 52.1206 7.63477C52.9299 7.63477 53.5529 7.87109 53.9897 8.34375C54.4302 8.81641 54.6504 9.48779 54.6504 10.3579V10.9058ZM53.6675 10.1323C53.6639 9.60238 53.5296 9.19238 53.2646 8.90234C53.0033 8.6123 52.604 8.46729 52.0669 8.46729C51.5262 8.46729 51.0947 8.62663 50.7725 8.94531C50.4538 9.264 50.2729 9.65967 50.23 10.1323H53.6675Z" fill="white"/>
<path d="M72.1968 12.2065C72.1968 13.0194 71.9282 13.6836 71.3911 14.1992C70.8576 14.7113 70.2023 14.9673 69.4253 14.9673C69.0314 14.9673 68.6733 14.9064 68.3511 14.7847C68.0288 14.6629 67.7441 14.4821 67.4971 14.2422C67.1891 13.945 66.951 13.5511 66.7827 13.0605C66.618 12.57 66.5356 11.9792 66.5356 11.2881C66.5356 10.5791 66.6108 9.95068 66.7612 9.40283C66.9152 8.85498 67.1587 8.368 67.4917 7.94189C67.8068 7.53727 68.2132 7.22217 68.7109 6.99658C69.2087 6.76742 69.7887 6.65283 70.4512 6.65283C70.6624 6.65283 70.8397 6.66178 70.9829 6.67969C71.1261 6.69759 71.2712 6.72982 71.418 6.77637V7.80225H71.3643C71.264 7.74854 71.1118 7.6984 70.9077 7.65186C70.7072 7.60173 70.5013 7.57666 70.29 7.57666C69.5202 7.57666 68.9061 7.81836 68.4478 8.30176C67.9894 8.78158 67.7227 9.43148 67.6475 10.2515C67.9482 10.0688 68.2437 9.93099 68.5337 9.83789C68.8273 9.74121 69.1657 9.69287 69.5488 9.69287C69.889 9.69287 70.188 9.7251 70.4458 9.78955C70.7072 9.85042 70.974 9.97575 71.2461 10.1655C71.5612 10.384 71.7975 10.6597 71.9551 10.9927C72.1162 11.3257 72.1968 11.7303 72.1968 12.2065ZM71.1064 12.2495C71.1064 11.9165 71.0563 11.6408 70.9561 11.4224C70.8594 11.2039 70.6982 11.0142 70.4727 10.853C70.3079 10.7384 70.1253 10.6632 69.9248 10.6274C69.7243 10.5916 69.5148 10.5737 69.2964 10.5737C68.992 10.5737 68.7091 10.6095 68.4478 10.6812C68.1864 10.7528 67.9178 10.8638 67.6421 11.0142C67.6349 11.0929 67.6296 11.1699 67.626 11.2451C67.6224 11.3167 67.6206 11.408 67.6206 11.519C67.6206 12.0848 67.6779 12.5324 67.7925 12.8618C67.9106 13.1877 68.0718 13.4455 68.2759 13.6353C68.4406 13.7928 68.6178 13.9092 68.8076 13.9844C69.001 14.056 69.2104 14.0918 69.436 14.0918C69.9552 14.0918 70.3634 13.9342 70.6606 13.6191C70.9578 13.3005 71.1064 12.8439 71.1064 12.2495ZM79.061 10.3213C79.061 11.0195 78.9805 11.6533 78.8193 12.2227C78.6618 12.792 78.4219 13.2772 78.0996 13.6782C77.7738 14.0864 77.3656 14.4015 76.875 14.6235C76.3844 14.8455 75.8079 14.9565 75.1455 14.9565C74.9593 14.9565 74.7839 14.9458 74.6191 14.9243C74.4544 14.9064 74.3076 14.876 74.1787 14.833V13.8071H74.2324C74.3363 13.8608 74.4831 13.9128 74.6729 13.9629C74.8626 14.0094 75.0739 14.0327 75.3066 14.0327C76.098 14.0327 76.7174 13.7964 77.165 13.3237C77.6162 12.8475 77.8776 12.1922 77.9492 11.3579C77.6162 11.5584 77.3029 11.7017 77.0093 11.7876C76.7157 11.8735 76.3952 11.9165 76.0479 11.9165C75.7184 11.9165 75.4194 11.8843 75.1509 11.8198C74.8859 11.7554 74.6191 11.63 74.3506 11.4438C74.0355 11.2254 73.7974 10.9479 73.6362 10.6113C73.4787 10.2747 73.3999 9.87191 73.3999 9.40283C73.3999 8.58643 73.6685 7.9222 74.2056 7.41016C74.7427 6.89811 75.3979 6.64209 76.1714 6.64209C76.5581 6.64209 76.9162 6.70296 77.2456 6.82471C77.575 6.94287 77.8633 7.12191 78.1104 7.36182C78.4147 7.65902 78.6493 8.04215 78.814 8.51123C78.9787 8.97673 79.061 9.58008 79.061 10.3213ZM77.9761 10.0903C77.9761 9.53532 77.9188 9.08952 77.8042 8.75293C77.6896 8.41634 77.5321 8.15495 77.3315 7.96875C77.1632 7.80762 76.9824 7.69303 76.7891 7.625C76.5957 7.55339 76.3862 7.51758 76.1606 7.51758C75.645 7.51758 75.2368 7.67871 74.936 8.00098C74.6388 8.32324 74.4902 8.7762 74.4902 9.35986C74.4902 9.70003 74.5386 9.97754 74.6353 10.1924C74.7319 10.4072 74.8949 10.5952 75.124 10.7563C75.2852 10.8674 75.4624 10.9425 75.6558 10.9819C75.8491 11.0177 76.064 11.0356 76.3003 11.0356C76.5796 11.0356 76.8625 10.998 77.1489 10.9229C77.4354 10.8477 77.7039 10.7384 77.9546 10.5952C77.9582 10.52 77.9618 10.4466 77.9653 10.375C77.9725 10.2998 77.9761 10.2049 77.9761 10.0903ZM84.5342 9.02148C84.5342 9.82357 84.3641 10.4198 84.0239 10.8101C83.6873 11.2004 83.2004 11.3955 82.563 11.3955C81.9113 11.3955 81.4189 11.2004 81.0859 10.8101C80.7529 10.4198 80.5864 9.82536 80.5864 9.02686C80.5864 8.22477 80.7565 7.62858 81.0967 7.23828C81.4368 6.84798 81.9256 6.65283 82.563 6.65283C83.2111 6.65283 83.7017 6.84977 84.0347 7.24365C84.3677 7.63753 84.5342 8.23014 84.5342 9.02148ZM88.2456 6.80322L84.0562 14.8008H83.1699L87.3594 6.80322H88.2456ZM90.8237 12.5825C90.8237 13.3846 90.6536 13.9808 90.3135 14.3711C89.9733 14.7614 89.4845 14.9565 88.8472 14.9565C88.1991 14.9565 87.7085 14.7596 87.3755 14.3657C87.0425 13.9718 86.876 13.3792 86.876 12.5879C86.876 11.7858 87.0443 11.1896 87.3809 10.7993C87.721 10.409 88.2098 10.2139 88.8472 10.2139C89.4989 10.2139 89.9912 10.409 90.3242 10.7993C90.6572 11.1896 90.8237 11.784 90.8237 12.5825ZM83.5781 9.02148C83.5781 8.4056 83.4976 7.97591 83.3364 7.73242C83.1789 7.48893 82.9211 7.36719 82.563 7.36719C82.1978 7.36719 81.9364 7.48893 81.7788 7.73242C81.6213 7.97591 81.5425 8.40739 81.5425 9.02686C81.5425 9.64632 81.6213 10.0778 81.7788 10.3213C81.9364 10.5612 82.1978 10.6812 82.563 10.6812C82.9211 10.6812 83.1789 10.5612 83.3364 10.3213C83.4976 10.0778 83.5781 9.64453 83.5781 9.02148ZM89.8677 12.5825C89.8677 11.9666 89.7871 11.5369 89.626 11.2935C89.4684 11.05 89.2106 10.9282 88.8525 10.9282C88.4873 10.9282 88.2259 11.05 88.0684 11.2935C87.9108 11.5369 87.832 11.9684 87.832 12.5879C87.832 13.2074 87.9108 13.6388 88.0684 13.8823C88.2259 14.1222 88.4873 14.2422 88.8525 14.2422C89.2106 14.2422 89.4684 14.1222 89.626 13.8823C89.7871 13.6388 89.8677 13.2056 89.8677 12.5825Z" fill="black" fill-opacity="0.2"/>
<path d="M71.1968 11.2065C71.1968 12.0194 70.9282 12.6836 70.3911 13.1992C69.8576 13.7113 69.2023 13.9673 68.4253 13.9673C68.0314 13.9673 67.6733 13.9064 67.3511 13.7847C67.0288 13.6629 66.7441 13.4821 66.4971 13.2422C66.1891 12.945 65.951 12.5511 65.7827 12.0605C65.618 11.57 65.5356 10.9792 65.5356 10.2881C65.5356 9.5791 65.6108 8.95068 65.7612 8.40283C65.9152 7.85498 66.1587 7.368 66.4917 6.94189C66.8068 6.53727 67.2132 6.22217 67.7109 5.99658C68.2087 5.76742 68.7887 5.65283 69.4512 5.65283C69.6624 5.65283 69.8397 5.66178 69.9829 5.67969C70.1261 5.69759 70.2712 5.72982 70.418 5.77637V6.80225H70.3643C70.264 6.74854 70.1118 6.6984 69.9077 6.65186C69.7072 6.60173 69.5013 6.57666 69.29 6.57666C68.5202 6.57666 67.9061 6.81836 67.4478 7.30176C66.9894 7.78158 66.7227 8.43148 66.6475 9.25146C66.9482 9.06885 67.2437 8.93099 67.5337 8.83789C67.8273 8.74121 68.1657 8.69287 68.5488 8.69287C68.889 8.69287 69.188 8.7251 69.4458 8.78955C69.7072 8.85042 69.974 8.97575 70.2461 9.16553C70.5612 9.38395 70.7975 9.65967 70.9551 9.99268C71.1162 10.3257 71.1968 10.7303 71.1968 11.2065ZM70.1064 11.2495C70.1064 10.9165 70.0563 10.6408 69.9561 10.4224C69.8594 10.2039 69.6982 10.0142 69.4727 9.85303C69.3079 9.73844 69.1253 9.66325 68.9248 9.62744C68.7243 9.59163 68.5148 9.57373 68.2964 9.57373C67.992 9.57373 67.7091 9.60954 67.4478 9.68115C67.1864 9.75277 66.9178 9.86377 66.6421 10.0142C66.6349 10.0929 66.6296 10.1699 66.626 10.2451C66.6224 10.3167 66.6206 10.408 66.6206 10.519C66.6206 11.0848 66.6779 11.5324 66.7925 11.8618C66.9106 12.1877 67.0718 12.4455 67.2759 12.6353C67.4406 12.7928 67.6178 12.9092 67.8076 12.9844C68.001 13.056 68.2104 13.0918 68.436 13.0918C68.9552 13.0918 69.3634 12.9342 69.6606 12.6191C69.9578 12.3005 70.1064 11.8439 70.1064 11.2495ZM78.061 9.32129C78.061 10.0195 77.9805 10.6533 77.8193 11.2227C77.6618 11.792 77.4219 12.2772 77.0996 12.6782C76.7738 13.0864 76.3656 13.4015 75.875 13.6235C75.3844 13.8455 74.8079 13.9565 74.1455 13.9565C73.9593 13.9565 73.7839 13.9458 73.6191 13.9243C73.4544 13.9064 73.3076 13.876 73.1787 13.833V12.8071H73.2324C73.3363 12.8608 73.4831 12.9128 73.6729 12.9629C73.8626 13.0094 74.0739 13.0327 74.3066 13.0327C75.098 13.0327 75.7174 12.7964 76.165 12.3237C76.6162 11.8475 76.8776 11.1922 76.9492 10.3579C76.6162 10.5584 76.3029 10.7017 76.0093 10.7876C75.7157 10.8735 75.3952 10.9165 75.0479 10.9165C74.7184 10.9165 74.4194 10.8843 74.1509 10.8198C73.8859 10.7554 73.6191 10.63 73.3506 10.4438C73.0355 10.2254 72.7974 9.94792 72.6362 9.61133C72.4787 9.27474 72.3999 8.87191 72.3999 8.40283C72.3999 7.58643 72.6685 6.9222 73.2056 6.41016C73.7427 5.89811 74.3979 5.64209 75.1714 5.64209C75.5581 5.64209 75.9162 5.70296 76.2456 5.82471C76.575 5.94287 76.8633 6.12191 77.1104 6.36182C77.4147 6.65902 77.6493 7.04215 77.814 7.51123C77.9787 7.97673 78.061 8.58008 78.061 9.32129ZM76.9761 9.09033C76.9761 8.53532 76.9188 8.08952 76.8042 7.75293C76.6896 7.41634 76.5321 7.15495 76.3315 6.96875C76.1632 6.80762 75.9824 6.69303 75.7891 6.625C75.5957 6.55339 75.3862 6.51758 75.1606 6.51758C74.645 6.51758 74.2368 6.67871 73.936 7.00098C73.6388 7.32324 73.4902 7.7762 73.4902 8.35986C73.4902 8.70003 73.5386 8.97754 73.6353 9.19238C73.7319 9.40723 73.8949 9.59521 74.124 9.75635C74.2852 9.86735 74.4624 9.94255 74.6558 9.98193C74.8491 10.0177 75.064 10.0356 75.3003 10.0356C75.5796 10.0356 75.8625 9.99805 76.1489 9.92285C76.4354 9.84766 76.7039 9.73844 76.9546 9.59521C76.9582 9.52002 76.9618 9.44661 76.9653 9.375C76.9725 9.2998 76.9761 9.20492 76.9761 9.09033ZM83.5342 8.02148C83.5342 8.82357 83.3641 9.41976 83.0239 9.81006C82.6873 10.2004 82.2004 10.3955 81.563 10.3955C80.9113 10.3955 80.4189 10.2004 80.0859 9.81006C79.7529 9.41976 79.5864 8.82536 79.5864 8.02686C79.5864 7.22477 79.7565 6.62858 80.0967 6.23828C80.4368 5.84798 80.9256 5.65283 81.563 5.65283C82.2111 5.65283 82.7017 5.84977 83.0347 6.24365C83.3677 6.63753 83.5342 7.23014 83.5342 8.02148ZM87.2456 5.80322L83.0562 13.8008H82.1699L86.3594 5.80322H87.2456ZM89.8237 11.5825C89.8237 12.3846 89.6536 12.9808 89.3135 13.3711C88.9733 13.7614 88.4845 13.9565 87.8472 13.9565C87.1991 13.9565 86.7085 13.7596 86.3755 13.3657C86.0425 12.9718 85.876 12.3792 85.876 11.5879C85.876 10.7858 86.0443 10.1896 86.3809 9.79932C86.721 9.40902 87.2098 9.21387 87.8472 9.21387C88.4989 9.21387 88.9912 9.40902 89.3242 9.79932C89.6572 10.1896 89.8237 10.784 89.8237 11.5825ZM82.5781 8.02148C82.5781 7.4056 82.4976 6.97591 82.3364 6.73242C82.1789 6.48893 81.9211 6.36719 81.563 6.36719C81.1978 6.36719 80.9364 6.48893 80.7788 6.73242C80.6213 6.97591 80.5425 7.40739 80.5425 8.02686C80.5425 8.64632 80.6213 9.0778 80.7788 9.32129C80.9364 9.5612 81.1978 9.68115 81.563 9.68115C81.9211 9.68115 82.1789 9.5612 82.3364 9.32129C82.4976 9.0778 82.5781 8.64453 82.5781 8.02148ZM88.8677 11.5825C88.8677 10.9666 88.7871 10.5369 88.626 10.2935C88.4684 10.05 88.2106 9.92822 87.8525 9.92822C87.4873 9.92822 87.2259 10.05 87.0684 10.2935C86.9108 10.5369 86.832 10.9684 86.832 11.5879C86.832 12.2074 86.9108 12.6388 87.0684 12.8823C87.2259 13.1222 87.4873 13.2422 87.8525 13.2422C88.2106 13.2422 88.4684 13.1222 88.626 12.8823C88.7871 12.6388 88.8677 12.2056 88.8677 11.5825Z" fill="white"/>
</g>
<defs>
<linearGradient id="paint0_linear_184_347" x1="0" y1="0" x2="0" y2="4000" gradientUnits="userSpaceOnUse">
<stop stop-color="#EEEEEE" stop-opacity="0.1"/>
<stop offset="1" stop-opacity="0.1"/>
</linearGradient>
<clipPath id="clip0_184_347">
<rect width="94" height="20" fill="white"/>
</clipPath>
</defs>
</svg>
